<mxfile host="app.diagrams.net" agent="Mozilla/5.0 (Windows NT 10.0; Win64; x64) AppleWebKit/537.36 (KHTML, like Gecko) Chrome/128.0.0.0 Safari/537.36 OPR/114.0.0.0" version="24.8.6">
  <diagram name="Página-1" id="UXAlbpwRrakTjSDlntNs">
    <mxGraphModel dx="2845" dy="3484" grid="1" gridSize="10" guides="1" tooltips="1" connect="1" arrows="1" fold="1" page="1" pageScale="1" pageWidth="827" pageHeight="1169" math="0" shadow="0">
      <root>
        <mxCell id="0" />
        <mxCell id="1" parent="0" />
        <mxCell id="pEQXdT9DuxXOnUpV88Sc-18" style="edgeStyle=orthogonalEdgeStyle;rounded=0;orthogonalLoop=1;jettySize=auto;html=1;" parent="1" edge="1">
          <mxGeometry relative="1" as="geometry">
            <mxPoint x="-20" y="-1180" as="sourcePoint" />
            <mxPoint x="49.999999999999545" y="-900" as="targetPoint" />
          </mxGeometry>
        </mxCell>
        <mxCell id="pEQXdT9DuxXOnUpV88Sc-19" style="edgeStyle=orthogonalEdgeStyle;rounded=0;orthogonalLoop=1;jettySize=auto;html=1;entryX=0;entryY=0.25;entryDx=0;entryDy=0;" parent="1" target="pEQXdT9DuxXOnUpV88Sc-12" edge="1">
          <mxGeometry relative="1" as="geometry">
            <mxPoint x="-20" y="-1180" as="sourcePoint" />
          </mxGeometry>
        </mxCell>
        <mxCell id="pEQXdT9DuxXOnUpV88Sc-31" style="edgeStyle=orthogonalEdgeStyle;rounded=0;orthogonalLoop=1;jettySize=auto;html=1;" parent="1" source="pEQXdT9DuxXOnUpV88Sc-8" edge="1">
          <mxGeometry relative="1" as="geometry">
            <mxPoint x="-80.00000000000045" y="-1210" as="targetPoint" />
          </mxGeometry>
        </mxCell>
        <mxCell id="pEQXdT9DuxXOnUpV88Sc-8" value="&lt;table style=&quot;border-collapse:&lt;br/&gt; collapse;width:71pt&quot; width=&quot;94&quot; cellspacing=&quot;0&quot; cellpadding=&quot;0&quot; border=&quot;0&quot;&gt;&lt;br/&gt; &lt;colgroup&gt;&lt;col style=&quot;mso-width-source:userset;mso-width-alt:3356;width:71pt&quot; width=&quot;94&quot;&gt;&lt;br/&gt; &lt;/colgroup&gt;&lt;tbody&gt;&lt;tr style=&quot;height:14.4pt&quot; height=&quot;19&quot;&gt;&lt;br/&gt;  &lt;td style=&quot;height: 14.4pt; width: 71pt; font-size: 11pt; font-family: &amp;quot;Aptos Narrow&amp;quot;, sans-serif; border: 0.5pt solid windowtext; background: rgb(166, 166, 166);&quot; width=&quot;94&quot; class=&quot;xl66&quot; height=&quot;19&quot;&gt;Editora&lt;/td&gt;&lt;br/&gt; &lt;/tr&gt;&lt;br/&gt; &lt;tr style=&quot;height:14.4pt&quot; height=&quot;19&quot;&gt;&lt;br/&gt;  &lt;td style=&quot;height: 14.4pt; font-size: 11pt; font-family: &amp;quot;Aptos Narrow&amp;quot;, sans-serif; border: 0.5pt solid windowtext;&quot; class=&quot;xl65&quot; height=&quot;19&quot;&gt;Id_editora&lt;/td&gt;&lt;br/&gt; &lt;/tr&gt;&lt;br/&gt; &lt;tr style=&quot;height:14.4pt&quot; height=&quot;19&quot;&gt;&lt;br/&gt;  &lt;td style=&quot;height: 14.4pt; font-size: 11pt; font-family: &amp;quot;Aptos Narrow&amp;quot;, sans-serif; border: 0.5pt solid windowtext;&quot; class=&quot;xl65&quot; height=&quot;19&quot;&gt;Editora&lt;/td&gt;&lt;br/&gt; &lt;/tr&gt;&lt;br/&gt; &lt;tr style=&quot;height:14.4pt&quot; height=&quot;19&quot;&gt;&lt;br/&gt;  &lt;td style=&quot;height: 14.4pt; font-size: 11pt; font-family: &amp;quot;Aptos Narrow&amp;quot;, sans-serif; border: 0.5pt solid windowtext;&quot; class=&quot;xl65&quot; height=&quot;19&quot;&gt;Endereço&lt;/td&gt;&lt;br/&gt; &lt;/tr&gt;&lt;br/&gt; &lt;tr style=&quot;height:14.4pt&quot; height=&quot;19&quot;&gt;&lt;br/&gt;  &lt;td style=&quot;height: 14.4pt; font-size: 11pt; font-family: &amp;quot;Aptos Narrow&amp;quot;, sans-serif; border: 0.5pt solid windowtext;&quot; class=&quot;xl65&quot; height=&quot;19&quot;&gt;Livros&lt;/td&gt;&lt;br/&gt; &lt;/tr&gt;&lt;/tbody&gt;&lt;/table&gt;" style="rounded=0;whiteSpace=wrap;html=1;" parent="1" vertex="1">
          <mxGeometry x="80" y="-1480" width="120" height="60" as="geometry" />
        </mxCell>
        <mxCell id="pEQXdT9DuxXOnUpV88Sc-21" style="edgeStyle=orthogonalEdgeStyle;rounded=0;orthogonalLoop=1;jettySize=auto;html=1;entryX=0;entryY=0.5;entryDx=0;entryDy=0;" parent="1" source="pEQXdT9DuxXOnUpV88Sc-14" edge="1">
          <mxGeometry relative="1" as="geometry">
            <mxPoint x="-10" y="-870" as="targetPoint" />
          </mxGeometry>
        </mxCell>
        <mxCell id="pEQXdT9DuxXOnUpV88Sc-9" value="&#xa;&#xa;&lt;table style=&quot;border-collapse:&#xa; collapse;width:100pt&quot; width=&quot;134&quot; cellspacing=&quot;0&quot; cellpadding=&quot;0&quot; border=&quot;0&quot;&gt;&#xa;&#xa; &lt;colgroup&gt;&lt;col style=&quot;mso-width-source:userset;mso-width-alt:4750;width:100pt&quot; width=&quot;134&quot;&gt;&#xa; &lt;/colgroup&gt;&lt;tbody&gt;&lt;tr style=&quot;height:14.4pt&quot; height=&quot;19&quot;&gt;&#xa;  &lt;td style=&quot;height:14.4pt;width:100pt;&#xa;  font-size:11.0pt;color:black;font-weight:400;text-decoration:none;text-underline-style:&#xa;  none;text-line-through:none;font-family:&amp;quot;Aptos Narrow&amp;quot;, sans-serif;&#xa;  border:.5pt solid windowtext;background:#A6A6A6;mso-pattern:black none&quot; width=&quot;134&quot; class=&quot;xl66&quot; height=&quot;19&quot;&gt;Empréstimo&lt;/td&gt;&#xa; &lt;/tr&gt;&#xa; &lt;tr style=&quot;height:14.4pt&quot; height=&quot;19&quot;&gt;&#xa;  &lt;td style=&quot;height:14.4pt;border-top:none;font-size:11.0pt;&#xa;  color:black;font-weight:400;text-decoration:none;text-underline-style:none;&#xa;  text-line-through:none;font-family:&amp;quot;Aptos Narrow&amp;quot;, sans-serif;border:.5pt solid windowtext&quot; class=&quot;xl65&quot; height=&quot;19&quot;&gt;Id_empréstimo&lt;/td&gt;&#xa; &lt;/tr&gt;&#xa; &lt;tr style=&quot;height:14.4pt&quot; height=&quot;19&quot;&gt;&#xa;  &lt;td style=&quot;height:14.4pt;border-top:none;font-size:11.0pt;&#xa;  color:black;font-weight:400;text-decoration:none;text-underline-style:none;&#xa;  text-line-through:none;font-family:&amp;quot;Aptos Narrow&amp;quot;, sans-serif;border:.5pt solid windowtext&quot; class=&quot;xl65&quot; height=&quot;19&quot;&gt;Id_Cliente&lt;/td&gt;&#xa; &lt;/tr&gt;&#xa; &lt;tr style=&quot;height:14.4pt&quot; height=&quot;19&quot;&gt;&#xa;  &lt;td style=&quot;height:14.4pt;border-top:none;font-size:11.0pt;&#xa;  color:black;font-weight:400;text-decoration:none;text-underline-style:none;&#xa;  text-line-through:none;font-family:&amp;quot;Aptos Narrow&amp;quot;, sans-serif;border:.5pt solid windowtext&quot; class=&quot;xl65&quot; height=&quot;19&quot;&gt;ID_Livro&lt;/td&gt;&#xa; &lt;/tr&gt;&#xa; &lt;tr style=&quot;height:14.4pt&quot; height=&quot;19&quot;&gt;&#xa;  &lt;td style=&quot;height:14.4pt;border-top:none;font-size:11.0pt;&#xa;  color:black;font-weight:400;text-decoration:none;text-underline-style:none;&#xa;  text-line-through:none;font-family:&amp;quot;Aptos Narrow&amp;quot;, sans-serif;border:.5pt solid windowtext&quot; class=&quot;xl65&quot; height=&quot;19&quot;&gt;Data_Emprestimo&lt;/td&gt;&#xa; &lt;/tr&gt;&#xa; &lt;tr style=&quot;height:14.4pt&quot; height=&quot;19&quot;&gt;&#xa;  &lt;td style=&quot;height:14.4pt&quot; class=&quot;xl67&quot; height=&quot;19&quot;&gt;Devolução&lt;/td&gt;&#xa; &lt;/tr&gt;&#xa; &lt;tr style=&quot;height:14.4pt&quot; height=&quot;19&quot;&gt;&#xa;  &lt;td style=&quot;height:14.4pt;border-top:none&quot; class=&quot;xl65&quot; height=&quot;19&quot;&gt;Telefone_Cliente&lt;/td&gt;&#xa; &lt;/tr&gt;&#xa;&#xa;&lt;/tbody&gt;&lt;/table&gt;&#xa;&#xa;&#xa;&#xa;&#xa;" style="rounded=0;whiteSpace=wrap;html=1;" parent="1" vertex="1">
          <mxGeometry x="-310" y="-470" width="120" height="60" as="geometry" />
        </mxCell>
        <mxCell id="pEQXdT9DuxXOnUpV88Sc-30" style="edgeStyle=orthogonalEdgeStyle;rounded=0;orthogonalLoop=1;jettySize=auto;html=1;entryX=0;entryY=0.5;entryDx=0;entryDy=0;" parent="1" source="pEQXdT9DuxXOnUpV88Sc-10" edge="1">
          <mxGeometry relative="1" as="geometry">
            <mxPoint x="-140" y="-1180" as="targetPoint" />
          </mxGeometry>
        </mxCell>
        <mxCell id="pEQXdT9DuxXOnUpV88Sc-10" value="&#xa;&#xa;&lt;table style=&quot;border-collapse:&#xa; collapse;width:88pt&quot; width=&quot;117&quot; cellspacing=&quot;0&quot; cellpadding=&quot;0&quot; border=&quot;0&quot;&gt;&#xa;&#xa; &lt;colgroup&gt;&lt;col style=&quot;mso-width-source:userset;mso-width-alt:4152;width:88pt&quot; width=&quot;117&quot;&gt;&#xa; &lt;/colgroup&gt;&lt;tbody&gt;&lt;tr style=&quot;height:14.4pt&quot; height=&quot;19&quot;&gt;&#xa;  &lt;td style=&quot;height:14.4pt;width:88pt;&#xa;  font-size:11.0pt;color:black;font-weight:400;text-decoration:none;text-underline-style:&#xa;  none;text-line-through:none;font-family:&amp;quot;Aptos Narrow&amp;quot;, sans-serif;&#xa;  border:.5pt solid windowtext;background:#A6A6A6;mso-pattern:black none&quot; width=&quot;117&quot; class=&quot;xl67&quot; height=&quot;19&quot;&gt;Eventos&lt;/td&gt;&#xa; &lt;/tr&gt;&#xa; &lt;tr style=&quot;height:14.4pt&quot; height=&quot;19&quot;&gt;&#xa;  &lt;td style=&quot;height:14.4pt;border-top:none;font-size:11.0pt;&#xa;  color:black;font-weight:400;text-decoration:none;text-underline-style:none;&#xa;  text-line-through:none;font-family:&amp;quot;Aptos Narrow&amp;quot;, sans-serif;border:.5pt solid windowtext&quot; class=&quot;xl66&quot; height=&quot;19&quot;&gt;Id_Eventos&lt;/td&gt;&#xa; &lt;/tr&gt;&#xa; &lt;tr style=&quot;height:14.4pt&quot; height=&quot;19&quot;&gt;&#xa;  &lt;td style=&quot;height:14.4pt;border-top:none;font-size:11.0pt;&#xa;  color:black;font-weight:400;text-decoration:none;text-underline-style:none;&#xa;  text-line-through:none;font-family:&amp;quot;Aptos Narrow&amp;quot;, sans-serif;border:.5pt solid windowtext&quot; class=&quot;xl66&quot; height=&quot;19&quot;&gt;Palestras&lt;/td&gt;&#xa; &lt;/tr&gt;&#xa; &lt;tr style=&quot;height:14.4pt&quot; height=&quot;19&quot;&gt;&#xa;  &lt;td style=&quot;height:14.4pt;border-top:none;font-size:11.0pt;&#xa;  color:black;font-weight:400;text-decoration:none;text-underline-style:none;&#xa;  text-line-through:none;font-family:&amp;quot;Aptos Narrow&amp;quot;, sans-serif;border:.5pt solid windowtext&quot; class=&quot;xl66&quot; height=&quot;19&quot;&gt;Workshops&lt;/td&gt;&#xa; &lt;/tr&gt;&#xa; &lt;tr style=&quot;height:14.4pt&quot; height=&quot;19&quot;&gt;&#xa;  &lt;td style=&quot;height:14.4pt;border-top:none;font-size:11.0pt;&#xa;  color:black;font-weight:400;text-decoration:none;text-underline-style:none;&#xa;  text-line-through:none;font-family:&amp;quot;Aptos Narrow&amp;quot;, sans-serif;border:.5pt solid windowtext&quot; class=&quot;xl66&quot; height=&quot;19&quot;&gt;Lançamentos_Livros&lt;/td&gt;&#xa; &lt;/tr&gt;&#xa; &lt;tr style=&quot;height:14.4pt&quot; height=&quot;19&quot;&gt;&#xa;  &lt;td style=&quot;height:14.4pt&quot; class=&quot;xl65&quot; height=&quot;19&quot;&gt;Data&lt;/td&gt;&#xa; &lt;/tr&gt;&#xa;&#xa;&lt;/tbody&gt;&lt;/table&gt;&#xa;&#xa;&#xa;&#xa;&#xa;" style="rounded=0;whiteSpace=wrap;html=1;" parent="1" vertex="1">
          <mxGeometry x="-370" y="-1190" width="120" height="60" as="geometry" />
        </mxCell>
        <mxCell id="pEQXdT9DuxXOnUpV88Sc-27" style="edgeStyle=orthogonalEdgeStyle;rounded=0;orthogonalLoop=1;jettySize=auto;html=1;entryX=1;entryY=0;entryDx=0;entryDy=0;" parent="1" source="pEQXdT9DuxXOnUpV88Sc-11" edge="1">
          <mxGeometry relative="1" as="geometry">
            <mxPoint x="110" y="-900" as="targetPoint" />
            <Array as="points">
              <mxPoint x="380" y="-920" />
              <mxPoint x="110" y="-920" />
            </Array>
          </mxGeometry>
        </mxCell>
        <mxCell id="pEQXdT9DuxXOnUpV88Sc-29" style="edgeStyle=orthogonalEdgeStyle;rounded=0;orthogonalLoop=1;jettySize=auto;html=1;entryX=1;entryY=0.5;entryDx=0;entryDy=0;" parent="1" source="pEQXdT9DuxXOnUpV88Sc-11" target="pEQXdT9DuxXOnUpV88Sc-12" edge="1">
          <mxGeometry relative="1" as="geometry" />
        </mxCell>
        <mxCell id="pEQXdT9DuxXOnUpV88Sc-11" value="&lt;table style=&quot;border-collapse:&lt;br/&gt; collapse;width:74pt&quot; width=&quot;99&quot; cellspacing=&quot;0&quot; cellpadding=&quot;0&quot; border=&quot;0&quot;&gt;&lt;br/&gt; &lt;colgroup&gt;&lt;col style=&quot;mso-width-source:userset;mso-width-alt:3527;width:74pt&quot; width=&quot;99&quot;&gt;&lt;br/&gt; &lt;/colgroup&gt;&lt;tbody&gt;&lt;tr style=&quot;height:14.4pt&quot; height=&quot;19&quot;&gt;&lt;br/&gt;  &lt;td style=&quot;height: 14.4pt; width: 74pt; font-size: 11pt; font-family: &amp;quot;Aptos Narrow&amp;quot;, sans-serif; border: 0.5pt solid windowtext; background: rgb(166, 166, 166);&quot; width=&quot;99&quot; class=&quot;xl66&quot; height=&quot;19&quot;&gt;Feedback&lt;/td&gt;&lt;br/&gt; &lt;/tr&gt;&lt;br/&gt; &lt;tr style=&quot;height:14.4pt&quot; height=&quot;19&quot;&gt;&lt;br/&gt;  &lt;td style=&quot;height: 14.4pt; font-size: 11pt; font-family: &amp;quot;Aptos Narrow&amp;quot;, sans-serif; border: 0.5pt solid windowtext;&quot; class=&quot;xl65&quot; height=&quot;19&quot;&gt;Id_feedback&lt;/td&gt;&lt;br/&gt; &lt;/tr&gt;&lt;br/&gt; &lt;tr style=&quot;height:14.4pt&quot; height=&quot;19&quot;&gt;&lt;br/&gt;  &lt;td style=&quot;height: 14.4pt; font-size: 11pt; font-family: &amp;quot;Aptos Narrow&amp;quot;, sans-serif; border: 0.5pt solid windowtext;&quot; class=&quot;xl65&quot; height=&quot;19&quot;&gt;feedback&lt;/td&gt;&lt;br/&gt; &lt;/tr&gt;&lt;br/&gt; &lt;tr style=&quot;height:14.4pt&quot; height=&quot;19&quot;&gt;&lt;br/&gt;  &lt;td style=&quot;height: 14.4pt; font-size: 11pt; font-family: &amp;quot;Aptos Narrow&amp;quot;, sans-serif; border: 0.5pt solid windowtext;&quot; class=&quot;xl65&quot; height=&quot;19&quot;&gt;ID_Livro&lt;/td&gt;&lt;br/&gt; &lt;/tr&gt;&lt;br/&gt; &lt;tr style=&quot;height:14.4pt&quot; height=&quot;19&quot;&gt;&lt;br/&gt;  &lt;td style=&quot;height: 14.4pt; font-size: 11pt; font-family: &amp;quot;Aptos Narrow&amp;quot;, sans-serif; border: 0.5pt solid windowtext;&quot; class=&quot;xl65&quot; height=&quot;19&quot;&gt;Id_Funcionário&lt;/td&gt;&lt;br/&gt; &lt;/tr&gt;&lt;/tbody&gt;&lt;/table&gt;" style="rounded=0;whiteSpace=wrap;html=1;" parent="1" vertex="1">
          <mxGeometry x="610" y="-860" width="120" height="60" as="geometry" />
        </mxCell>
        <mxCell id="pEQXdT9DuxXOnUpV88Sc-12" value="&lt;table style=&quot;border-collapse:&lt;br/&gt; collapse;width:76pt&quot; width=&quot;102&quot; cellspacing=&quot;0&quot; cellpadding=&quot;0&quot; border=&quot;0&quot;&gt;&lt;br/&gt; &lt;colgroup&gt;&lt;col style=&quot;mso-width-source:userset;mso-width-alt:3612;width:76pt&quot; width=&quot;102&quot;&gt;&lt;br/&gt; &lt;/colgroup&gt;&lt;tbody&gt;&lt;tr style=&quot;height:14.4pt&quot; height=&quot;19&quot;&gt;&lt;br/&gt;  &lt;td style=&quot;height: 14.4pt; width: 76pt; font-size: 11pt; font-family: &amp;quot;Aptos Narrow&amp;quot;, sans-serif; border: 0.5pt solid windowtext; background: rgb(166, 166, 166);&quot; width=&quot;102&quot; class=&quot;xl66&quot; height=&quot;19&quot;&gt;Funcionários&lt;/td&gt;&lt;br/&gt; &lt;/tr&gt;&lt;br/&gt; &lt;tr style=&quot;height:14.4pt&quot; height=&quot;19&quot;&gt;&lt;br/&gt;  &lt;td style=&quot;height: 14.4pt; font-size: 11pt; font-family: &amp;quot;Aptos Narrow&amp;quot;, sans-serif; border: 0.5pt solid windowtext;&quot; class=&quot;xl65&quot; height=&quot;19&quot;&gt;Id_Funcionário&lt;/td&gt;&lt;br/&gt; &lt;/tr&gt;&lt;br/&gt; &lt;tr style=&quot;height:14.4pt&quot; height=&quot;19&quot;&gt;&lt;br/&gt;  &lt;td style=&quot;height: 14.4pt; font-size: 11pt; font-family: &amp;quot;Aptos Narrow&amp;quot;, sans-serif; border: 0.5pt solid windowtext;&quot; class=&quot;xl65&quot; height=&quot;19&quot;&gt;Nome&lt;/td&gt;&lt;br/&gt; &lt;/tr&gt;&lt;br/&gt; &lt;tr style=&quot;height:14.4pt&quot; height=&quot;19&quot;&gt;&lt;br/&gt;  &lt;td style=&quot;height: 14.4pt; font-size: 11pt; font-family: &amp;quot;Aptos Narrow&amp;quot;, sans-serif; border: 0.5pt solid windowtext;&quot; class=&quot;xl65&quot; height=&quot;19&quot;&gt;Cargo&lt;/td&gt;&lt;br/&gt; &lt;/tr&gt;&lt;br/&gt; &lt;tr style=&quot;height:14.4pt&quot; height=&quot;19&quot;&gt;&lt;br/&gt;  &lt;td style=&quot;height: 14.4pt; font-size: 11pt; font-family: &amp;quot;Aptos Narrow&amp;quot;, sans-serif; border: 0.5pt solid windowtext;&quot; class=&quot;xl65&quot; height=&quot;19&quot;&gt;Telefone&lt;/td&gt;&lt;br/&gt; &lt;/tr&gt;&lt;/tbody&gt;&lt;/table&gt;" style="rounded=0;whiteSpace=wrap;html=1;" parent="1" vertex="1">
          <mxGeometry x="330" y="-1150" width="120" height="60" as="geometry" />
        </mxCell>
        <mxCell id="pEQXdT9DuxXOnUpV88Sc-13" value="&#xa;&#xa;&lt;table style=&quot;border-collapse:&#xa; collapse;width:89pt&quot; width=&quot;118&quot; cellspacing=&quot;0&quot; cellpadding=&quot;0&quot; border=&quot;0&quot;&gt;&#xa;&#xa; &lt;colgroup&gt;&lt;col style=&quot;mso-width-source:userset;mso-width-alt:4209;width:89pt&quot; width=&quot;118&quot;&gt;&#xa; &lt;/colgroup&gt;&lt;tbody&gt;&lt;tr style=&quot;height:14.4pt&quot; height=&quot;19&quot;&gt;&#xa;  &lt;td style=&quot;height:14.4pt;width:89pt;&#xa;  font-size:11.0pt;color:black;font-weight:400;text-decoration:none;text-underline-style:&#xa;  none;text-line-through:none;font-family:&amp;quot;Aptos Narrow&amp;quot;, sans-serif;&#xa;  border:.5pt solid windowtext;background:#A6A6A6;mso-pattern:black none&quot; width=&quot;118&quot; class=&quot;xl66&quot; height=&quot;19&quot;&gt;Histórico&lt;/td&gt;&#xa; &lt;/tr&gt;&#xa; &lt;tr style=&quot;height:14.4pt&quot; height=&quot;19&quot;&gt;&#xa;  &lt;td style=&quot;height:14.4pt;border-top:none;font-size:11.0pt;&#xa;  color:black;font-weight:400;text-decoration:none;text-underline-style:none;&#xa;  text-line-through:none;font-family:&amp;quot;Aptos Narrow&amp;quot;, sans-serif;border:.5pt solid windowtext&quot; class=&quot;xl65&quot; height=&quot;19&quot;&gt;Id_Histórico&lt;/td&gt;&#xa; &lt;/tr&gt;&#xa; &lt;tr style=&quot;height:14.4pt&quot; height=&quot;19&quot;&gt;&#xa;  &lt;td style=&quot;height:14.4pt;border-top:none;font-size:11.0pt;&#xa;  color:black;font-weight:400;text-decoration:none;text-underline-style:none;&#xa;  text-line-through:none;font-family:&amp;quot;Aptos Narrow&amp;quot;, sans-serif;border:.5pt solid windowtext&quot; class=&quot;xl65&quot; height=&quot;19&quot;&gt;ID_Livro&lt;/td&gt;&#xa; &lt;/tr&gt;&#xa; &lt;tr style=&quot;height:14.4pt&quot; height=&quot;19&quot;&gt;&#xa;  &lt;td style=&quot;height:14.4pt;border-top:none;font-size:11.0pt;&#xa;  color:black;font-weight:400;text-decoration:none;text-underline-style:none;&#xa;  text-line-through:none;font-family:&amp;quot;Aptos Narrow&amp;quot;, sans-serif;border:.5pt solid windowtext&quot; class=&quot;xl65&quot; height=&quot;19&quot;&gt;Id_Cliente&lt;/td&gt;&#xa; &lt;/tr&gt;&#xa; &lt;tr style=&quot;height:14.4pt&quot; height=&quot;19&quot;&gt;&#xa;  &lt;td style=&quot;height:14.4pt;border-top:none;font-size:11.0pt;&#xa;  color:black;font-weight:400;text-decoration:none;text-underline-style:none;&#xa;  text-line-through:none;font-family:&amp;quot;Aptos Narrow&amp;quot;, sans-serif;border:.5pt solid windowtext&quot; class=&quot;xl65&quot; height=&quot;19&quot;&gt;id_multa&lt;/td&gt;&#xa; &lt;/tr&gt;&#xa; &lt;tr style=&quot;height:14.4pt&quot; height=&quot;19&quot;&gt;&#xa;  &lt;td style=&quot;height:14.4pt&quot; class=&quot;xl67&quot; height=&quot;19&quot;&gt;Devolução&lt;/td&gt;&#xa; &lt;/tr&gt;&#xa; &lt;tr style=&quot;height:14.4pt&quot; height=&quot;19&quot;&gt;&#xa;  &lt;td style=&quot;height:14.4pt;border-top:none&quot; class=&quot;xl65&quot; height=&quot;19&quot;&gt;Data_Emprestimo&lt;/td&gt;&#xa; &lt;/tr&gt;&#xa; &lt;tr style=&quot;height:14.4pt&quot; height=&quot;19&quot;&gt;&#xa;  &lt;td style=&quot;height:14.4pt;border-top:none&quot; class=&quot;xl65&quot; height=&quot;19&quot;&gt;Id_empréstimo&lt;/td&gt;&#xa; &lt;/tr&gt;&#xa;&#xa;&lt;/tbody&gt;&lt;/table&gt;&#xa;&#xa;&#xa;&#xa;&#xa;" style="rounded=0;whiteSpace=wrap;html=1;" parent="1" vertex="1">
          <mxGeometry x="-520" y="-490" width="120" height="60" as="geometry" />
        </mxCell>
        <mxCell id="pEQXdT9DuxXOnUpV88Sc-22" style="edgeStyle=orthogonalEdgeStyle;rounded=0;orthogonalLoop=1;jettySize=auto;html=1;entryX=1;entryY=0.5;entryDx=0;entryDy=0;" parent="1" source="pEQXdT9DuxXOnUpV88Sc-15" edge="1">
          <mxGeometry relative="1" as="geometry">
            <mxPoint x="110" y="-870" as="targetPoint" />
          </mxGeometry>
        </mxCell>
        <mxCell id="pEQXdT9DuxXOnUpV88Sc-15" value="&lt;table style=&quot;border-collapse:&lt;br/&gt; collapse;width:83pt&quot; width=&quot;111&quot; cellspacing=&quot;0&quot; cellpadding=&quot;0&quot; border=&quot;0&quot;&gt;&lt;br/&gt; &lt;colgroup&gt;&lt;col style=&quot;mso-width-source:userset;mso-width-alt:3953;width:83pt&quot; width=&quot;111&quot;&gt;&lt;br/&gt; &lt;/colgroup&gt;&lt;tbody&gt;&lt;tr style=&quot;height:14.4pt&quot; height=&quot;19&quot;&gt;&lt;br/&gt;  &lt;td style=&quot;height: 14.4pt; width: 83pt; font-size: 11pt; font-family: &amp;quot;Aptos Narrow&amp;quot;, sans-serif; border: 0.5pt solid windowtext; background: rgb(166, 166, 166);&quot; width=&quot;111&quot; class=&quot;xl66&quot; height=&quot;19&quot;&gt;Pedidos&lt;/td&gt;&lt;br/&gt; &lt;/tr&gt;&lt;br/&gt; &lt;tr style=&quot;height:14.4pt&quot; height=&quot;19&quot;&gt;&lt;br/&gt;  &lt;td style=&quot;height: 14.4pt; font-size: 11pt; font-family: &amp;quot;Aptos Narrow&amp;quot;, sans-serif; border: 0.5pt solid windowtext;&quot; class=&quot;xl65&quot; height=&quot;19&quot;&gt;Id_Pedido&lt;/td&gt;&lt;br/&gt; &lt;/tr&gt;&lt;br/&gt; &lt;tr style=&quot;height:14.4pt&quot; height=&quot;19&quot;&gt;&lt;br/&gt;  &lt;td style=&quot;height: 14.4pt; font-size: 11pt; font-family: &amp;quot;Aptos Narrow&amp;quot;, sans-serif; border: 0.5pt solid windowtext;&quot; class=&quot;xl65&quot; height=&quot;19&quot;&gt;Nome_Livro&lt;/td&gt;&lt;br/&gt; &lt;/tr&gt;&lt;br/&gt; &lt;tr style=&quot;height:14.4pt&quot; height=&quot;19&quot;&gt;&lt;br/&gt;  &lt;td style=&quot;height: 14.4pt; font-size: 11pt; font-family: &amp;quot;Aptos Narrow&amp;quot;, sans-serif; border: 0.5pt solid windowtext;&quot; class=&quot;xl65&quot; height=&quot;19&quot;&gt;Data_Pedido&lt;/td&gt;&lt;br/&gt; &lt;/tr&gt;&lt;br/&gt; &lt;tr style=&quot;height:14.4pt&quot; height=&quot;19&quot;&gt;&lt;br/&gt;  &lt;td style=&quot;height: 14.4pt; font-size: 11pt; font-family: &amp;quot;Aptos Narrow&amp;quot;, sans-serif; border: 0.5pt solid windowtext;&quot; class=&quot;xl65&quot; height=&quot;19&quot;&gt;Vencimento_Pedido&lt;/td&gt;&lt;br/&gt; &lt;/tr&gt;&lt;/tbody&gt;&lt;/table&gt;" style="rounded=0;whiteSpace=wrap;html=1;" parent="1" vertex="1">
          <mxGeometry x="180" y="-750" width="120" height="60" as="geometry" />
        </mxCell>
        <mxCell id="pEQXdT9DuxXOnUpV88Sc-42" style="edgeStyle=orthogonalEdgeStyle;rounded=0;orthogonalLoop=1;jettySize=auto;html=1;" parent="1" source="pEQXdT9DuxXOnUpV88Sc-16" target="pEQXdT9DuxXOnUpV88Sc-33" edge="1">
          <mxGeometry relative="1" as="geometry" />
        </mxCell>
        <mxCell id="pEQXdT9DuxXOnUpV88Sc-16" value="&#xa;&#xa;&lt;table style=&quot;border-collapse:&#xa; collapse;width:95pt&quot; width=&quot;126&quot; cellspacing=&quot;0&quot; cellpadding=&quot;0&quot; border=&quot;0&quot;&gt;&#xa;&#xa; &lt;colgroup&gt;&lt;col style=&quot;mso-width-source:userset;mso-width-alt:4494;width:95pt&quot; width=&quot;126&quot;&gt;&#xa; &lt;/colgroup&gt;&lt;tbody&gt;&lt;tr style=&quot;height:14.4pt&quot; height=&quot;19&quot;&gt;&#xa;  &lt;td style=&quot;height:14.4pt;width:95pt;&#xa;  font-size:11.0pt;color:black;font-weight:400;text-decoration:none;text-underline-style:&#xa;  none;text-line-through:none;font-family:&amp;quot;Aptos Narrow&amp;quot;, sans-serif;&#xa;  border:.5pt solid windowtext;background:#A6A6A6;mso-pattern:black none&quot; width=&quot;126&quot; class=&quot;xl66&quot; height=&quot;19&quot;&gt;Recomendações&lt;/td&gt;&#xa; &lt;/tr&gt;&#xa; &lt;tr style=&quot;height:14.4pt&quot; height=&quot;19&quot;&gt;&#xa;  &lt;td style=&quot;height:14.4pt;border-top:none;font-size:11.0pt;&#xa;  color:black;font-weight:400;text-decoration:none;text-underline-style:none;&#xa;  text-line-through:none;font-family:&amp;quot;Aptos Narrow&amp;quot;, sans-serif;border:.5pt solid windowtext&quot; class=&quot;xl65&quot; height=&quot;19&quot;&gt;Id_recomendações&lt;/td&gt;&#xa; &lt;/tr&gt;&#xa; &lt;tr style=&quot;height:14.4pt&quot; height=&quot;19&quot;&gt;&#xa;  &lt;td style=&quot;height:14.4pt;border-top:none;font-size:11.0pt;&#xa;  color:black;font-weight:400;text-decoration:none;text-underline-style:none;&#xa;  text-line-through:none;font-family:&amp;quot;Aptos Narrow&amp;quot;, sans-serif;border:.5pt solid windowtext&quot; class=&quot;xl65&quot; height=&quot;19&quot;&gt;Id_feedback&lt;/td&gt;&#xa; &lt;/tr&gt;&#xa; &lt;tr style=&quot;height:14.4pt&quot; height=&quot;19&quot;&gt;&#xa;  &lt;td style=&quot;height:14.4pt;border-top:none;font-size:11.0pt;&#xa;  color:black;font-weight:400;text-decoration:none;text-underline-style:none;&#xa;  text-line-through:none;font-family:&amp;quot;Aptos Narrow&amp;quot;, sans-serif;border:.5pt solid windowtext&quot; class=&quot;xl65&quot; height=&quot;19&quot;&gt;feedback&lt;/td&gt;&#xa; &lt;/tr&gt;&#xa; &lt;tr style=&quot;height:14.4pt&quot; height=&quot;19&quot;&gt;&#xa;  &lt;td style=&quot;height:14.4pt;border-top:none;font-size:11.0pt;&#xa;  color:black;font-weight:400;text-decoration:none;text-underline-style:none;&#xa;  text-line-through:none;font-family:&amp;quot;Aptos Narrow&amp;quot;, sans-serif;border:.5pt solid windowtext&quot; class=&quot;xl65&quot; height=&quot;19&quot;&gt;ID_Livro&lt;/td&gt;&#xa; &lt;/tr&gt;&#xa; &lt;tr style=&quot;height:14.4pt&quot; height=&quot;19&quot;&gt;&#xa;  &lt;td style=&quot;height:14.4pt&quot; class=&quot;xl67&quot; height=&quot;19&quot;&gt;Id_Cliente&lt;/td&gt;&#xa; &lt;/tr&gt;&#xa;&#xa;&lt;/tbody&gt;&lt;/table&gt;&#xa;&#xa;&#xa;&#xa;&#xa;" style="rounded=0;whiteSpace=wrap;html=1;" parent="1" vertex="1">
          <mxGeometry x="190" y="-310" width="120" height="60" as="geometry" />
        </mxCell>
        <mxCell id="pEQXdT9DuxXOnUpV88Sc-36" style="edgeStyle=orthogonalEdgeStyle;rounded=0;orthogonalLoop=1;jettySize=auto;html=1;" parent="1" source="pEQXdT9DuxXOnUpV88Sc-33" target="pEQXdT9DuxXOnUpV88Sc-9" edge="1">
          <mxGeometry relative="1" as="geometry" />
        </mxCell>
        <mxCell id="pEQXdT9DuxXOnUpV88Sc-37" style="edgeStyle=orthogonalEdgeStyle;rounded=0;orthogonalLoop=1;jettySize=auto;html=1;" parent="1" source="pEQXdT9DuxXOnUpV88Sc-33" target="pEQXdT9DuxXOnUpV88Sc-13" edge="1">
          <mxGeometry relative="1" as="geometry" />
        </mxCell>
        <mxCell id="pEQXdT9DuxXOnUpV88Sc-33" value="&#xa;&lt;br style=&quot;forced-color-adjust: none; color: rgb(0, 0, 0); font-family: Helvetica; font-size: 12px; font-style: normal; font-variant-ligatures: normal; font-variant-caps: normal; font-weight: 400; letter-spacing: normal; orphans: 2; text-align: center; text-indent: 0px; text-transform: none; widows: 2; word-spacing: 0px; -webkit-text-stroke-width: 0px; white-space: normal; background-color: rgb(251, 251, 251); text-decoration-thickness: initial; text-decoration-style: initial; text-decoration-color: initial;&quot;&gt;&lt;br style=&quot;forced-color-adjust: none; color: rgb(0, 0, 0); font-family: Helvetica; font-size: 12px; font-style: normal; font-variant-ligatures: normal; font-variant-caps: normal; font-weight: 400; letter-spacing: normal; orphans: 2; text-align: center; text-indent: 0px; text-transform: none; widows: 2; word-spacing: 0px; -webkit-text-stroke-width: 0px; white-space: normal; background-color: rgb(251, 251, 251); text-decoration-thickness: initial; text-decoration-style: initial; text-decoration-color: initial;&quot;&gt;&lt;br style=&quot;forced-color-adjust: none; color: rgb(0, 0, 0); font-family: Helvetica; font-size: 12px; font-style: normal; font-variant-ligatures: normal; font-variant-caps: normal; font-weight: 400; letter-spacing: normal; orphans: 2; text-align: center; text-indent: 0px; text-transform: none; widows: 2; word-spacing: 0px; -webkit-text-stroke-width: 0px; white-space: normal; background-color: rgb(251, 251, 251); text-decoration-thickness: initial; text-decoration-style: initial; text-decoration-color: initial;&quot;&gt;&lt;br style=&quot;forced-color-adjust: none; color: rgb(0, 0, 0); font-family: Helvetica; font-size: 12px; font-style: normal; font-variant-ligatures: normal; font-variant-caps: normal; font-weight: 400; letter-spacing: normal; orphans: 2; text-align: center; text-indent: 0px; text-transform: none; widows: 2; word-spacing: 0px; -webkit-text-stroke-width: 0px; white-space: normal; background-color: rgb(251, 251, 251); text-decoration-thickness: initial; text-decoration-style: initial; text-decoration-color: initial;&quot;&gt;&lt;br style=&quot;forced-color-adjust: none; color: rgb(0, 0, 0); font-family: Helvetica; font-size: 12px; font-style: normal; font-variant-ligatures: normal; font-variant-caps: normal; font-weight: 400; letter-spacing: normal; orphans: 2; text-align: center; text-indent: 0px; text-transform: none; widows: 2; word-spacing: 0px; -webkit-text-stroke-width: 0px; white-space: normal; background-color: rgb(251, 251, 251); text-decoration-thickness: initial; text-decoration-style: initial; text-decoration-color: initial;&quot;&gt;&lt;table style=&quot;forced-color-adjust: none; color: rgb(0, 0, 0); font-family: Helvetica; font-size: 12px; font-style: normal; font-variant-ligatures: normal; font-variant-caps: normal; font-weight: 400; letter-spacing: normal; orphans: 2; text-align: center; text-transform: none; widows: 2; word-spacing: 0px; -webkit-text-stroke-width: 0px; white-space: normal; background-color: rgb(251, 251, 251); text-decoration-thickness: initial; text-decoration-style: initial; text-decoration-color: initial; width: 92pt;&quot; width=&quot;123&quot; cellspacing=&quot;0&quot; cellpadding=&quot;0&quot; border=&quot;0&quot;&gt;&lt;colgroup style=&quot;forced-color-adjust: none;&quot;&gt;&lt;col style=&quot;forced-color-adjust: none; width: 92pt;&quot; width=&quot;123&quot;&gt;&lt;/colgroup&gt;&lt;tbody style=&quot;forced-color-adjust: none;&quot;&gt;&lt;tr style=&quot;forced-color-adjust: none; height: 14.4pt;&quot; height=&quot;19&quot;&gt;&lt;td style=&quot;forced-color-adjust: none; height: 14.4pt; width: 92pt; font-size: 11pt; font-family: &amp;quot;Aptos Narrow&amp;quot;, sans-serif; border: 0.5pt solid windowtext; background: rgb(166, 166, 166);&quot; width=&quot;123&quot; class=&quot;xl66&quot; height=&quot;19&quot;&gt;Clientes&lt;/td&gt;&lt;/tr&gt;&lt;tr style=&quot;forced-color-adjust: none; height: 14.4pt;&quot; height=&quot;19&quot;&gt;&lt;td style=&quot;forced-color-adjust: none; height: 14.4pt; font-size: 11pt; font-family: &amp;quot;Aptos Narrow&amp;quot;, sans-serif; border: 0.5pt solid windowtext;&quot; class=&quot;xl65&quot; height=&quot;19&quot;&gt;Id_Cliente&lt;/td&gt;&lt;/tr&gt;&lt;tr style=&quot;forced-color-adjust: none; height: 14.4pt;&quot; height=&quot;19&quot;&gt;&lt;td style=&quot;forced-color-adjust: none; height: 14.4pt; font-size: 11pt; font-family: &amp;quot;Aptos Narrow&amp;quot;, sans-serif; border: 0.5pt solid windowtext;&quot; class=&quot;xl65&quot; height=&quot;19&quot;&gt;Nome_Cliente&lt;/td&gt;&lt;/tr&gt;&lt;tr style=&quot;forced-color-adjust: none; height: 14.4pt;&quot; height=&quot;19&quot;&gt;&lt;td style=&quot;forced-color-adjust: none; height: 14.4pt; font-size: 11pt; font-family: &amp;quot;Aptos Narrow&amp;quot;, sans-serif; border: 0.5pt solid windowtext;&quot; class=&quot;xl65&quot; height=&quot;19&quot;&gt;Nacismento_Cliente&lt;/td&gt;&lt;/tr&gt;&lt;tr style=&quot;forced-color-adjust: none; height: 14.4pt;&quot; height=&quot;19&quot;&gt;&lt;td style=&quot;forced-color-adjust: none; height: 14.4pt; font-size: 11pt; font-family: &amp;quot;Aptos Narrow&amp;quot;, sans-serif; border: 0.5pt solid windowtext;&quot; class=&quot;xl65&quot; height=&quot;19&quot;&gt;Telefone&lt;/td&gt;&lt;/tr&gt;&lt;/tbody&gt;&lt;/table&gt;&#xa;&#xa;" style="ellipse;whiteSpace=wrap;html=1;" parent="1" vertex="1">
          <mxGeometry x="-10" y="-910" width="120" height="80" as="geometry" />
        </mxCell>
        <mxCell id="pEQXdT9DuxXOnUpV88Sc-14" value="&lt;table style=&quot;border-collapse:&lt;br/&gt; collapse;width:81pt&quot; width=&quot;108&quot; cellspacing=&quot;0&quot; cellpadding=&quot;0&quot; border=&quot;0&quot;&gt;&lt;br/&gt; &lt;colgroup&gt;&lt;col style=&quot;mso-width-source:userset;mso-width-alt:3840;width:81pt&quot; width=&quot;108&quot;&gt;&lt;br/&gt; &lt;/colgroup&gt;&lt;tbody&gt;&lt;tr style=&quot;height:14.4pt&quot; height=&quot;19&quot;&gt;&lt;br/&gt;  &lt;td style=&quot;height: 14.4pt; width: 81pt; font-size: 11pt; font-family: &amp;quot;Aptos Narrow&amp;quot;, sans-serif; border: 0.5pt solid windowtext; background: rgb(166, 166, 166);&quot; width=&quot;108&quot; class=&quot;xl66&quot; height=&quot;19&quot;&gt;Multas&lt;/td&gt;&lt;br/&gt; &lt;/tr&gt;&lt;br/&gt; &lt;tr style=&quot;height:14.4pt&quot; height=&quot;19&quot;&gt;&lt;br/&gt;  &lt;td style=&quot;height: 14.4pt; font-size: 11pt; font-family: &amp;quot;Aptos Narrow&amp;quot;, sans-serif; border: 0.5pt solid windowtext;&quot; class=&quot;xl65&quot; height=&quot;19&quot;&gt;id_multa&lt;/td&gt;&lt;br/&gt; &lt;/tr&gt;&lt;br/&gt; &lt;tr style=&quot;height:14.4pt&quot; height=&quot;19&quot;&gt;&lt;br/&gt;  &lt;td style=&quot;height: 14.4pt; font-size: 11pt; font-family: &amp;quot;Aptos Narrow&amp;quot;, sans-serif; border: 0.5pt solid windowtext;&quot; class=&quot;xl65&quot; height=&quot;19&quot;&gt;Id_empréstimo&lt;/td&gt;&lt;br/&gt; &lt;/tr&gt;&lt;br/&gt; &lt;tr style=&quot;height:14.4pt&quot; height=&quot;19&quot;&gt;&lt;br/&gt;  &lt;td style=&quot;height: 14.4pt; font-size: 11pt; font-family: &amp;quot;Aptos Narrow&amp;quot;, sans-serif; border: 0.5pt solid windowtext;&quot; class=&quot;xl65&quot; height=&quot;19&quot;&gt;Valor&lt;/td&gt;&lt;br/&gt; &lt;/tr&gt;&lt;br/&gt; &lt;tr style=&quot;height:14.4pt&quot; height=&quot;19&quot;&gt;&lt;br/&gt;  &lt;td style=&quot;height: 14.4pt; font-size: 11pt; font-family: &amp;quot;Aptos Narrow&amp;quot;, sans-serif; border: 0.5pt solid windowtext;&quot; class=&quot;xl65&quot; height=&quot;19&quot;&gt;Data_Vencimento&lt;/td&gt;&lt;br/&gt; &lt;/tr&gt;&lt;br/&gt; &lt;tr style=&quot;height:14.4pt&quot; height=&quot;19&quot;&gt;&lt;br/&gt;  &lt;td style=&quot;height:14.4pt&quot; class=&quot;xl67&quot; height=&quot;19&quot;&gt;Pagamento&lt;/td&gt;&lt;br/&gt; &lt;/tr&gt;&lt;/tbody&gt;&lt;/table&gt;" style="rounded=0;whiteSpace=wrap;html=1;" parent="1" vertex="1">
          <mxGeometry x="-130" y="-470" width="120" height="60" as="geometry" />
        </mxCell>
        <mxCell id="pEQXdT9DuxXOnUpV88Sc-39" value="&#xa;&lt;br style=&quot;forced-color-adjust: none; color: rgb(0, 0, 0); font-family: Helvetica; font-size: 12px; font-style: normal; font-variant-ligatures: normal; font-variant-caps: normal; font-weight: 400; letter-spacing: normal; orphans: 2; text-align: center; text-indent: 0px; text-transform: none; widows: 2; word-spacing: 0px; -webkit-text-stroke-width: 0px; white-space: normal; background-color: rgb(251, 251, 251); text-decoration-thickness: initial; text-decoration-style: initial; text-decoration-color: initial;&quot;&gt;&lt;br style=&quot;forced-color-adjust: none; color: rgb(0, 0, 0); font-family: Helvetica; font-size: 12px; font-style: normal; font-variant-ligatures: normal; font-variant-caps: normal; font-weight: 400; letter-spacing: normal; orphans: 2; text-align: center; text-indent: 0px; text-transform: none; widows: 2; word-spacing: 0px; -webkit-text-stroke-width: 0px; white-space: normal; background-color: rgb(251, 251, 251); text-decoration-thickness: initial; text-decoration-style: initial; text-decoration-color: initial;&quot;&gt;&lt;br style=&quot;forced-color-adjust: none; color: rgb(0, 0, 0); font-family: Helvetica; font-size: 12px; font-style: normal; font-variant-ligatures: normal; font-variant-caps: normal; font-weight: 400; letter-spacing: normal; orphans: 2; text-align: center; text-indent: 0px; text-transform: none; widows: 2; word-spacing: 0px; -webkit-text-stroke-width: 0px; white-space: normal; background-color: rgb(251, 251, 251); text-decoration-thickness: initial; text-decoration-style: initial; text-decoration-color: initial;&quot;&gt;&lt;br style=&quot;forced-color-adjust: none; color: rgb(0, 0, 0); font-family: Helvetica; font-size: 12px; font-style: normal; font-variant-ligatures: normal; font-variant-caps: normal; font-weight: 400; letter-spacing: normal; orphans: 2; text-align: center; text-indent: 0px; text-transform: none; widows: 2; word-spacing: 0px; -webkit-text-stroke-width: 0px; white-space: normal; background-color: rgb(251, 251, 251); text-decoration-thickness: initial; text-decoration-style: initial; text-decoration-color: initial;&quot;&gt;&lt;br style=&quot;forced-color-adjust: none; color: rgb(0, 0, 0); font-family: Helvetica; font-size: 12px; font-style: normal; font-variant-ligatures: normal; font-variant-caps: normal; font-weight: 400; letter-spacing: normal; orphans: 2; text-align: center; text-indent: 0px; text-transform: none; widows: 2; word-spacing: 0px; -webkit-text-stroke-width: 0px; white-space: normal; background-color: rgb(251, 251, 251); text-decoration-thickness: initial; text-decoration-style: initial; text-decoration-color: initial;&quot;&gt;&lt;br style=&quot;forced-color-adjust: none; color: rgb(0, 0, 0); font-family: Helvetica; font-size: 12px; font-style: normal; font-variant-ligatures: normal; font-variant-caps: normal; font-weight: 400; letter-spacing: normal; orphans: 2; text-align: center; text-indent: 0px; text-transform: none; widows: 2; word-spacing: 0px; -webkit-text-stroke-width: 0px; white-space: normal; background-color: rgb(251, 251, 251); text-decoration-thickness: initial; text-decoration-style: initial; text-decoration-color: initial;&quot;&gt;&lt;br style=&quot;forced-color-adjust: none; color: rgb(0, 0, 0); font-family: Helvetica; font-size: 12px; font-style: normal; font-variant-ligatures: normal; font-variant-caps: normal; font-weight: 400; letter-spacing: normal; orphans: 2; text-align: center; text-indent: 0px; text-transform: none; widows: 2; word-spacing: 0px; -webkit-text-stroke-width: 0px; white-space: normal; background-color: rgb(251, 251, 251); text-decoration-thickness: initial; text-decoration-style: initial; text-decoration-color: initial;&quot;&gt;&lt;br style=&quot;forced-color-adjust: none; color: rgb(0, 0, 0); font-family: Helvetica; font-size: 12px; font-style: normal; font-variant-ligatures: normal; font-variant-caps: normal; font-weight: 400; letter-spacing: normal; orphans: 2; text-align: center; text-indent: 0px; text-transform: none; widows: 2; word-spacing: 0px; -webkit-text-stroke-width: 0px; white-space: normal; background-color: rgb(251, 251, 251); text-decoration-thickness: initial; text-decoration-style: initial; text-decoration-color: initial;&quot;&gt;&lt;br style=&quot;forced-color-adjust: none; color: rgb(0, 0, 0); font-family: Helvetica; font-size: 12px; font-style: normal; font-variant-ligatures: normal; font-variant-caps: normal; font-weight: 400; letter-spacing: normal; orphans: 2; text-align: center; text-indent: 0px; text-transform: none; widows: 2; word-spacing: 0px; -webkit-text-stroke-width: 0px; white-space: normal; background-color: rgb(251, 251, 251); text-decoration-thickness: initial; text-decoration-style: initial; text-decoration-color: initial;&quot;&gt;&lt;br style=&quot;forced-color-adjust: none; color: rgb(0, 0, 0); font-family: Helvetica; font-size: 12px; font-style: normal; font-variant-ligatures: normal; font-variant-caps: normal; font-weight: 400; letter-spacing: normal; orphans: 2; text-align: center; text-indent: 0px; text-transform: none; widows: 2; word-spacing: 0px; -webkit-text-stroke-width: 0px; white-space: normal; background-color: rgb(251, 251, 251); text-decoration-thickness: initial; text-decoration-style: initial; text-decoration-color: initial;&quot;&gt;&lt;br style=&quot;forced-color-adjust: none; color: rgb(0, 0, 0); font-family: Helvetica; font-size: 12px; font-style: normal; font-variant-ligatures: normal; font-variant-caps: normal; font-weight: 400; letter-spacing: normal; orphans: 2; text-align: center; text-indent: 0px; text-transform: none; widows: 2; word-spacing: 0px; -webkit-text-stroke-width: 0px; white-space: normal; background-color: rgb(251, 251, 251); text-decoration-thickness: initial; text-decoration-style: initial; text-decoration-color: initial;&quot;&gt;&lt;br style=&quot;forced-color-adjust: none; color: rgb(0, 0, 0); font-family: Helvetica; font-size: 12px; font-style: normal; font-variant-ligatures: normal; font-variant-caps: normal; font-weight: 400; letter-spacing: normal; orphans: 2; text-align: center; text-indent: 0px; text-transform: none; widows: 2; word-spacing: 0px; -webkit-text-stroke-width: 0px; white-space: normal; background-color: rgb(251, 251, 251); text-decoration-thickness: initial; text-decoration-style: initial; text-decoration-color: initial;&quot;&gt;&lt;br style=&quot;forced-color-adjust: none; color: rgb(0, 0, 0); font-family: Helvetica; font-size: 12px; font-style: normal; font-variant-ligatures: normal; font-variant-caps: normal; font-weight: 400; letter-spacing: normal; orphans: 2; text-align: center; text-indent: 0px; text-transform: none; widows: 2; word-spacing: 0px; -webkit-text-stroke-width: 0px; white-space: normal; background-color: rgb(251, 251, 251); text-decoration-thickness: initial; text-decoration-style: initial; text-decoration-color: initial;&quot;&gt;&lt;br style=&quot;forced-color-adjust: none; color: rgb(0, 0, 0); font-family: Helvetica; font-size: 12px; font-style: normal; font-variant-ligatures: normal; font-variant-caps: normal; font-weight: 400; letter-spacing: normal; orphans: 2; text-align: center; text-indent: 0px; text-transform: none; widows: 2; word-spacing: 0px; -webkit-text-stroke-width: 0px; white-space: normal; background-color: rgb(251, 251, 251); text-decoration-thickness: initial; text-decoration-style: initial; text-decoration-color: initial;&quot;&gt;&lt;br style=&quot;forced-color-adjust: none; color: rgb(0, 0, 0); font-family: Helvetica; font-size: 12px; font-style: normal; font-variant-ligatures: normal; font-variant-caps: normal; font-weight: 400; letter-spacing: normal; orphans: 2; text-align: center; text-indent: 0px; text-transform: none; widows: 2; word-spacing: 0px; -webkit-text-stroke-width: 0px; white-space: normal; background-color: rgb(251, 251, 251); text-decoration-thickness: initial; text-decoration-style: initial; text-decoration-color: initial;&quot;&gt;&lt;br style=&quot;forced-color-adjust: none; color: rgb(0, 0, 0); font-family: Helvetica; font-size: 12px; font-style: normal; font-variant-ligatures: normal; font-variant-caps: normal; font-weight: 400; letter-spacing: normal; orphans: 2; text-align: center; text-indent: 0px; text-transform: none; widows: 2; word-spacing: 0px; -webkit-text-stroke-width: 0px; white-space: normal; background-color: rgb(251, 251, 251); text-decoration-thickness: initial; text-decoration-style: initial; text-decoration-color: initial;&quot;&gt;&lt;table style=&quot;forced-color-adjust: none; color: rgb(0, 0, 0); font-family: Helvetica; font-size: 12px; font-style: normal; font-variant-ligatures: normal; font-variant-caps: normal; font-weight: 400; letter-spacing: normal; orphans: 2; text-align: center; text-transform: none; widows: 2; word-spacing: 0px; -webkit-text-stroke-width: 0px; white-space: normal; background-color: rgb(251, 251, 251); text-decoration-thickness: initial; text-decoration-style: initial; text-decoration-color: initial; width: 116pt;&quot; width=&quot;154&quot; cellspacing=&quot;0&quot; cellpadding=&quot;0&quot; border=&quot;0&quot;&gt;&lt;colgroup style=&quot;forced-color-adjust: none;&quot;&gt;&lt;col style=&quot;forced-color-adjust: none; width: 116pt;&quot; width=&quot;154&quot;&gt;&lt;/colgroup&gt;&lt;tbody style=&quot;forced-color-adjust: none;&quot;&gt;&lt;tr style=&quot;forced-color-adjust: none; height: 14.4pt;&quot; height=&quot;19&quot;&gt;&lt;td style=&quot;forced-color-adjust: none; height: 14.4pt; width: 116pt; font-size: 11pt; font-family: &amp;quot;Aptos Narrow&amp;quot;, sans-serif; border: 0.5pt solid windowtext; background: rgb(166, 166, 166);&quot; width=&quot;154&quot; class=&quot;xl64&quot; height=&quot;19&quot;&gt;Bibiliotca&lt;/td&gt;&lt;/tr&gt;&lt;tr style=&quot;forced-color-adjust: none; height: 14.4pt;&quot; height=&quot;19&quot;&gt;&lt;td style=&quot;forced-color-adjust: none; height: 14.4pt; font-size: 11pt; font-family: &amp;quot;Aptos Narrow&amp;quot;, sans-serif; border: 0.5pt solid windowtext;&quot; class=&quot;xl63&quot; height=&quot;19&quot;&gt;ID_Livro&lt;/td&gt;&lt;/tr&gt;&lt;tr style=&quot;forced-color-adjust: none; height: 14.4pt;&quot; height=&quot;19&quot;&gt;&lt;td style=&quot;forced-color-adjust: none; height: 14.4pt; font-size: 11pt; font-family: &amp;quot;Aptos Narrow&amp;quot;, sans-serif; border: 0.5pt solid windowtext;&quot; class=&quot;xl63&quot; height=&quot;19&quot;&gt;Numero_Livro&lt;/td&gt;&lt;/tr&gt;&lt;tr style=&quot;forced-color-adjust: none; height: 14.4pt;&quot; height=&quot;19&quot;&gt;&lt;td style=&quot;forced-color-adjust: none; height: 14.4pt; font-size: 11pt; font-family: &amp;quot;Aptos Narrow&amp;quot;, sans-serif; border: 0.5pt solid windowtext;&quot; class=&quot;xl63&quot; height=&quot;19&quot;&gt;Genero_Textual&lt;/td&gt;&lt;/tr&gt;&lt;tr style=&quot;forced-color-adjust: none; height: 14.4pt;&quot; height=&quot;19&quot;&gt;&lt;td style=&quot;forced-color-adjust: none; height: 14.4pt; font-size: 11pt; font-family: &amp;quot;Aptos Narrow&amp;quot;, sans-serif; border: 0.5pt solid windowtext;&quot; class=&quot;xl63&quot; height=&quot;19&quot;&gt;AnoDe_Lançamento&lt;/td&gt;&lt;/tr&gt;&lt;/tbody&gt;&lt;/table&gt;&#xa;&#xa;" style="ellipse;whiteSpace=wrap;html=1;" parent="1" vertex="1">
          <mxGeometry x="-140" y="-1210" width="120" height="80" as="geometry" />
        </mxCell>
      </root>
    </mxGraphModel>
  </diagram>
</mxfile>
